<?xml version="1.0" encoding="iso-8859-1"?>
<!-- Generator: Adobe Illustrator 23.0.2, SVG Export Plug-In . SVG Version: 6.00 Build 0)  -->
<svg version="1.1" id="Layer_1" xmlns="http://www.w3.org/2000/svg" xmlns:xlink="http://www.w3.org/1999/xlink" x="0px" y="0px"
	 viewBox="0 0 1000 1000" style="enable-background:new 0 0 1000 1000;" xml:space="preserve">
<rect id="XMLID_32_" x="0" style="fill:#FFFBC7;" width="1000" height="1000"/>
<g id="XMLID_2_" style="opacity:0.79;">
	
		<polyline id="XMLID_134_" style="fill:none;stroke:#DBBA95;stroke-width:6;stroke-linecap:round;stroke-linejoin:round;stroke-miterlimit:10;" points="
		291.137,587.436 291.137,618.367 229.275,618.367 	"/>
	
		<polyline id="XMLID_103_" style="fill:none;stroke:#DBBA95;stroke-width:6;stroke-linecap:round;stroke-linejoin:round;stroke-miterlimit:10;" points="
		352.999,618.367 291.137,618.367 291.137,587.436 	"/>
	
		<rect id="XMLID_157_" x="260.206" y="618.367" style="fill:none;stroke:#DBBA95;stroke-width:6;stroke-linecap:round;stroke-linejoin:round;stroke-miterlimit:10;" width="61.862" height="30.931"/>
	
		<polyline id="XMLID_161_" style="fill:none;stroke:#DBBA95;stroke-width:6;stroke-linecap:round;stroke-linejoin:round;stroke-miterlimit:10;" points="
		308.714,680.229 291.137,680.229 291.137,649.298 352.999,649.298 	"/>
	
		<polyline id="XMLID_102_" style="fill:none;stroke:#DBBA95;stroke-width:6;stroke-linecap:round;stroke-linejoin:round;stroke-miterlimit:10;" points="
		229.275,649.298 291.137,649.298 291.137,680.229 240.974,680.229 	"/>
	
		<polyline id="XMLID_165_" style="fill:none;stroke:#DBBA95;stroke-width:6;stroke-linecap:round;stroke-linejoin:round;stroke-miterlimit:10;" points="
		208.188,618.367 260.206,618.367 260.206,649.298 229.275,649.298 	"/>
	
		<polyline id="XMLID_156_" style="fill:none;stroke:#DBBA95;stroke-width:6;stroke-linecap:round;stroke-linejoin:round;stroke-miterlimit:10;" points="
		366.71,649.298 322.068,649.298 322.068,618.367 343.511,618.367 	"/>
</g>
<g id="XMLID_10_" style="opacity:0.79;">
	
		<polyline id="XMLID_101_" style="fill:none;stroke:#DBBA95;stroke-width:6;stroke-linecap:round;stroke-linejoin:round;stroke-miterlimit:10;" points="
		875.311,414.52 875.311,445.451 937.173,445.451 	"/>
	
		<polyline id="XMLID_100_" style="fill:none;stroke:#DBBA95;stroke-width:6;stroke-linecap:round;stroke-linejoin:round;stroke-miterlimit:10;" points="
		813.449,445.451 875.311,445.451 875.311,414.52 	"/>
	
		<rect id="XMLID_99_" x="844.38" y="445.451" transform="matrix(-1 -4.488555e-11 4.488555e-11 -1 1750.6226 921.8336)" style="fill:none;stroke:#DBBA95;stroke-width:6;stroke-linecap:round;stroke-linejoin:round;stroke-miterlimit:10;" width="61.862" height="30.931"/>
	
		<polyline id="XMLID_98_" style="fill:none;stroke:#DBBA95;stroke-width:6;stroke-linecap:round;stroke-linejoin:round;stroke-miterlimit:10;" points="
		857.734,507.313 875.311,507.313 875.311,476.382 813.449,476.382 	"/>
	
		<polyline id="XMLID_97_" style="fill:none;stroke:#DBBA95;stroke-width:6;stroke-linecap:round;stroke-linejoin:round;stroke-miterlimit:10;" points="
		937.173,476.382 875.311,476.382 875.311,507.313 898.5,507.313 	"/>
	
		<polyline id="XMLID_91_" style="fill:none;stroke:#DBBA95;stroke-width:6;stroke-linecap:round;stroke-linejoin:round;stroke-miterlimit:10;" points="
		958.26,445.451 906.242,445.451 906.242,476.382 937.173,476.382 	"/>
	
		<polyline id="XMLID_86_" style="fill:none;stroke:#DBBA95;stroke-width:6;stroke-linecap:round;stroke-linejoin:round;stroke-miterlimit:10;" points="
		799.739,476.382 844.38,476.382 844.38,445.451 822.937,445.451 	"/>
</g>
<g id="XMLID_104_" style="opacity:0.79;">
	
		<polyline id="XMLID_112_" style="fill:none;stroke:#DBBA95;stroke-width:6;stroke-linecap:round;stroke-linejoin:round;stroke-miterlimit:10;" points="
		129.755,425.474 129.755,394.543 67.893,394.543 	"/>
	
		<polyline id="XMLID_111_" style="fill:none;stroke:#DBBA95;stroke-width:6;stroke-linecap:round;stroke-linejoin:round;stroke-miterlimit:10;" points="
		191.617,394.543 129.755,394.543 129.755,425.474 	"/>
	
		<rect id="XMLID_110_" x="98.824" y="363.612" style="fill:none;stroke:#DBBA95;stroke-width:6;stroke-linecap:round;stroke-linejoin:round;stroke-miterlimit:10;" width="61.862" height="30.931"/>
	
		<polyline id="XMLID_109_" style="fill:none;stroke:#DBBA95;stroke-width:6;stroke-linecap:round;stroke-linejoin:round;stroke-miterlimit:10;" points="
		147.332,332.681 129.755,332.681 129.755,363.612 191.617,363.612 	"/>
	
		<polyline id="XMLID_108_" style="fill:none;stroke:#DBBA95;stroke-width:6;stroke-linecap:round;stroke-linejoin:round;stroke-miterlimit:10;" points="
		67.893,363.612 129.755,363.612 129.755,332.681 79.592,332.681 	"/>
	
		<polyline id="XMLID_107_" style="fill:none;stroke:#DBBA95;stroke-width:6;stroke-linecap:round;stroke-linejoin:round;stroke-miterlimit:10;" points="
		46.806,394.543 98.824,394.543 98.824,363.612 67.893,363.612 	"/>
	
		<polyline id="XMLID_106_" style="fill:none;stroke:#DBBA95;stroke-width:6;stroke-linecap:round;stroke-linejoin:round;stroke-miterlimit:10;" points="
		205.327,363.612 160.686,363.612 160.686,394.543 182.129,394.543 	"/>
</g>
<line id="XMLID_25_" style="fill:none;stroke:#1B3242;stroke-width:14;stroke-linecap:round;stroke-linejoin:round;stroke-miterlimit:10;" x1="201.033" y1="713" x2="201.033" y2="337.942"/>
<rect id="XMLID_77_" x="417.914" y="625.748" style="fill:#C3F3F7;" width="21.849" height="90.252"/>
<rect id="XMLID_26_" x="417.914" y="625.748" style="fill:#93C4C6;" width="21.849" height="26.585"/>
<rect id="XMLID_18_" x="417.914" y="625.748" style="fill:none;stroke:#1B3242;stroke-width:10;stroke-linecap:round;stroke-linejoin:round;stroke-miterlimit:10;" width="21.849" height="90.252"/>
<path id="XMLID_69_" style="fill:#F9263B;" d="M475.627,382.077H382.05c-16.154,0-31.622,6.729-42.487,18.684
	c-23.627,25.997-38.296,62.218-38.296,102.304c0,15.803,2.311,30.991,6.518,45.208h242.106c4.207-14.216,6.518-29.405,6.518-45.208
	c0-40.086-14.669-76.307-38.296-102.304C507.249,388.806,491.782,382.077,475.627,382.077z"/>
<path id="XMLID_83_" style="fill:#EF3946;" d="M475.627,382.077H382.05c-16.154,0-31.622,6.729-42.487,18.684
	c-23.627,25.997-38.296,62.218-38.296,102.304c0,15.803,2.311,30.991,6.518,45.208h242.106c4.207-14.216,6.518-29.405,6.518-45.208
	c0-40.086-14.669-76.307-38.296-102.304C507.249,388.806,491.782,382.077,475.627,382.077z"/>
<path id="XMLID_87_" style="opacity:0.64;fill:#FCFCFC;" d="M519.445,397.761c-11.027-11.955-26.725-18.684-43.12-18.684h-94.972
	c-16.395,0-32.093,6.729-43.12,18.684c-23.979,25.997-38.867,62.218-38.867,102.304c0,15.803,2.346,30.991,6.615,45.208h7.236
	c-3.514-12.541-5.453-25.846-5.453-39.665c0-37.486,13.922-71.357,36.346-95.668c10.311-11.179,24.992-17.472,40.323-17.472h88.812
	c15.332,0,30.012,6.293,40.323,17.472c22.424,24.311,36.346,58.182,36.346,95.668c0,13.819-1.94,27.125-5.453,39.665h7.236
	c4.27-14.216,6.615-29.405,6.615-45.208C558.311,459.979,543.424,423.758,519.445,397.761z"/>
<path id="XMLID_13_" style="fill:none;stroke:#1B3242;stroke-width:10;stroke-linecap:round;stroke-linejoin:round;stroke-miterlimit:10;" d="
	M475.627,382.077H382.05c-16.154,0-31.622,6.729-42.487,18.684c-23.627,25.997-38.296,62.218-38.296,102.304
	c0,15.803,2.311,30.991,6.518,45.208h242.106c4.207-14.216,6.518-29.405,6.518-45.208c0-40.086-14.669-76.307-38.296-102.304
	C507.249,388.806,491.782,382.077,475.627,382.077z"/>
<path id="XMLID_17_" style="fill:#FFFFFF;" d="M262.902,485.888l42.132-17.508c0,0,19.29,10.201,39.304,30.214
	c20.935,20.935,22.142,37.903,22.142,37.903l-31.794,26.82L262.902,485.888z"/>
<path id="XMLID_67_" style="fill:#D12845;" d="M262.902,485.888l42.132-17.508c0,0,19.29,10.201,39.304,30.214
	c20.935,20.935,22.142,37.903,22.142,37.903l-31.794,26.82L262.902,485.888z"/>
<path id="XMLID_92_" style="opacity:0.64;fill:#FCFCFC;" d="M272.213,495.199l42.132-17.508c0,0,15.983,8.455,33.946,25.066
	c-1.235-1.367-2.546-2.755-3.953-4.162c-20.013-20.013-39.304-30.214-39.304-30.214l-42.132,17.508l71.784,77.43l0.381-0.321
	L272.213,495.199z"/>
<path id="XMLID_9_" style="fill:none;stroke:#1B3242;stroke-width:10;stroke-linecap:round;stroke-linejoin:round;stroke-miterlimit:10;" d="
	M262.902,485.888l42.132-17.508c0,0,19.29,10.201,39.304,30.214c20.935,20.935,22.142,37.903,22.142,37.903l-31.794,26.82
	L262.902,485.888z"/>
<path id="XMLID_68_" style="fill:#D12845;" d="M594.93,485.888l-42.132-17.508c0,0-19.29,10.201-39.304,30.214
	c-20.935,20.935-22.142,37.903-22.142,37.903l31.794,26.82L594.93,485.888z"/>
<path id="XMLID_94_" style="opacity:0.64;fill:#FCFCFC;" d="M552.797,468.38c0,0-18.765,9.93-38.481,29.403
	c15.001-12.634,27.133-19.055,27.133-19.055l42.132,17.508l-61.421,66.251l0.985,0.831l71.784-77.43L552.797,468.38z"/>
<path id="XMLID_16_" style="fill:none;stroke:#1B3242;stroke-width:10;stroke-linecap:round;stroke-linejoin:round;stroke-miterlimit:10;" d="
	M594.93,485.888l-42.132-17.508c0,0-19.29,10.201-39.304,30.214c-20.935,20.935-22.142,37.903-22.142,37.903l31.794,26.82
	L594.93,485.888z"/>
<line id="XMLID_124_" style="fill:none;stroke:#1B3242;stroke-width:10;stroke-linecap:round;stroke-linejoin:round;stroke-miterlimit:10;" x1="879" y1="726" x2="893" y2="726"/>
<line id="XMLID_126_" style="fill:none;stroke:#1B3242;stroke-width:10;stroke-linecap:round;stroke-linejoin:round;stroke-miterlimit:10;" x1="910" y1="726" x2="917" y2="726"/>
<line id="XMLID_125_" style="fill:none;stroke:#1B3242;stroke-width:10;stroke-linecap:round;stroke-linejoin:round;stroke-miterlimit:10;" x1="569" y1="726" x2="863" y2="726"/>
<line id="XMLID_105_" style="fill:none;stroke:#1B3242;stroke-width:10;stroke-linecap:round;stroke-linejoin:round;stroke-miterlimit:10;" x1="103" y1="726" x2="554.623" y2="726"/>
<path id="XMLID_14_" style="fill:#FF485E;" d="M493.912,527.545c-18.823,3.773-41.131,5.966-65.073,5.966s-46.25-2.193-65.073-5.966
	c-13.836,8.212-22.259,19.052-22.259,30.942c0,25.631,39.1,46.41,87.332,46.41s87.332-20.778,87.332-46.41
	C516.171,546.597,507.748,535.757,493.912,527.545z"/>
<path id="XMLID_95_" style="opacity:0.36;fill:#7BB448;" d="M428.839,573.897c-38.658,0-71.843-9.887-86.146-23.998
	c-0.766,2.47-1.187,5.002-1.187,7.588c0,25.631,39.1,46.41,87.332,46.41s87.332-20.778,87.332-46.41
	c0-2.586-0.421-5.118-1.187-7.588C500.682,564.009,467.497,573.897,428.839,573.897z"/>
<path id="XMLID_15_" style="fill:none;stroke:#303030;stroke-width:10;stroke-linecap:round;stroke-linejoin:round;stroke-miterlimit:10;" d="
	M493.912,527.545c-18.823,3.773-41.131,5.966-65.073,5.966s-46.25-2.193-65.073-5.966c-13.836,8.212-22.259,19.052-22.259,30.942
	c0,25.631,39.1,46.41,87.332,46.41s87.332-20.778,87.332-46.41C516.171,546.597,507.748,535.757,493.912,527.545z"/>
<path id="XMLID_64_" style="fill:none;stroke:#1B3242;stroke-width:10;stroke-linecap:round;stroke-linejoin:round;stroke-miterlimit:10;" d="
	M493.912,527.545c-18.823,3.773-41.131,5.966-65.073,5.966s-46.25-2.193-65.073-5.966c-13.836,8.212-22.259,19.052-22.259,30.942
	c0,25.631,39.1,46.41,87.332,46.41s87.332-20.778,87.332-46.41C516.171,546.597,507.748,535.757,493.912,527.545z"/>
<path id="XMLID_6_" style="fill:#EF3946;" d="M428.839,585.034c-60.186,0-114.34-36.915-152.083-95.778
	c-1.896-2.957-5.197-4.714-8.71-4.714h0c-7.63,0-12.71,7.963-9.421,14.848c37.236,77.961,99.582,129.075,170.215,129.075
	s132.979-51.114,170.214-129.075c3.289-6.885-1.791-14.848-9.421-14.848l0,0c-3.513,0-6.814,1.756-8.71,4.714
	C543.179,548.119,489.025,585.034,428.839,585.034z"/>
<path id="XMLID_96_" style="opacity:0.64;fill:#FCFCFC;" d="M428.839,595.798c63.567,0,120.965-42.64,161.926-111.183
	c-0.372-0.04-0.747-0.074-1.133-0.074c-3.513,0-6.814,1.756-8.71,4.714c-37.743,58.863-91.897,95.778-152.083,95.778
	c-60.186,0-114.34-36.915-152.083-95.778c-1.896-2.957-5.197-4.714-8.71-4.714h0c-0.386,0-0.761,0.034-1.133,0.074
	C307.874,553.158,365.272,595.798,428.839,595.798z"/>
<path id="XMLID_89_" style="opacity:0.29;fill:#7BB448;" d="M596.718,487.327c-0.076,0.188-0.134,0.377-0.222,0.563
	c-36.676,77.961-98.086,129.075-167.658,129.075S297.858,565.85,261.181,487.89c-0.088-0.186-0.146-0.376-0.222-0.563
	c-3.142,2.93-4.415,7.709-2.335,12.063c37.236,77.961,99.582,129.075,170.215,129.075S561.818,577.35,599.053,499.39
	C601.133,495.036,599.861,490.256,596.718,487.327z"/>
<path id="XMLID_11_" style="fill:none;stroke:#1B3242;stroke-width:10;stroke-linecap:round;stroke-linejoin:round;stroke-miterlimit:10;" d="
	M428.839,585.034c-60.186,0-114.34-36.915-152.083-95.778c-1.896-2.957-5.197-4.714-8.71-4.714h0c-7.63,0-12.71,7.963-9.421,14.848
	c37.236,77.961,99.582,129.075,170.215,129.075s132.979-51.114,170.214-129.075c3.289-6.885-1.791-14.848-9.421-14.848l0,0
	c-3.513,0-6.814,1.756-8.71,4.714C543.179,548.119,489.025,585.034,428.839,585.034z"/>
<path id="XMLID_78_" style="fill:#303030;" d="M493.516,726H364.162c-2.945,0-5.333-2.388-5.333-5.333l0,0
	c0-2.946,2.388-5.333,5.333-5.333h129.355c2.946,0,5.333,2.388,5.333,5.333l0,0C498.85,723.612,496.462,726,493.516,726z"/>
<path id="XMLID_19_" style="fill:none;stroke:#1B3242;stroke-width:10;stroke-linecap:round;stroke-linejoin:round;stroke-miterlimit:10;" d="
	M493.516,726H364.162c-2.945,0-5.333-2.388-5.333-5.333l0,0c0-2.946,2.388-5.333,5.333-5.333h129.355
	c2.946,0,5.333,2.388,5.333,5.333l0,0C498.85,723.612,496.462,726,493.516,726z"/>
<polygon id="XMLID_79_" style="fill:#82E086;" points="276,337.942 126.067,337.942 150.372,211 251.695,211 "/>
<polygon id="XMLID_129_" style="opacity:0.37;fill:#82E086;" points="249.695,211 238.667,211 257,337.942 274,337.942 "/>
<polygon id="XMLID_90_" style="opacity:0.83;fill:#CCCCCC;" points="150.372,211 126.067,337.942 172,337.942 181.755,211 "/>
<polygon id="XMLID_22_" style="fill:none;stroke:#1B3242;stroke-width:10;stroke-linecap:round;stroke-linejoin:round;stroke-miterlimit:10;" points="
	276,337.942 126.067,337.942 150.372,211 251.695,211 "/>
<path id="XMLID_80_" style="fill:#1AC7CE;" d="M253.533,726h-105l0,0c0-14.359,11.641-26,26-26h53
	C241.893,700,253.533,711.641,253.533,726L253.533,726z"/>
<path id="XMLID_93_" style="fill:#31AFAF;" d="M199.867,700h-25.333c-14.359,0-26,11.641-26,26v0h25.333v0
	C173.867,711.641,185.507,700,199.867,700z"/>
<path id="XMLID_24_" style="fill:none;stroke:#303030;stroke-width:10;stroke-linecap:round;stroke-linejoin:round;stroke-miterlimit:10;" d="
	M253.533,726h-105l0,0c0-14.359,11.641-26,26-26h53C241.893,700,253.533,711.641,253.533,726L253.533,726z"/>
<path id="XMLID_84_" style="fill:none;stroke:#303030;stroke-width:10;stroke-linecap:round;stroke-linejoin:round;stroke-miterlimit:10;" d="
	M253.533,726h-105l0,0c0-14.359,11.641-26,26-26h53C241.893,700,253.533,711.641,253.533,726L253.533,726z"/>
<path id="XMLID_85_" style="fill:none;stroke:#1B3242;stroke-width:10;stroke-linecap:round;stroke-linejoin:round;stroke-miterlimit:10;" d="
	M253.533,726h-105l0,0c0-14.359,11.641-26,26-26h53C241.893,700,253.533,711.641,253.533,726L253.533,726z"/>
<line id="XMLID_27_" style="fill:none;stroke:#1B3242;stroke-width:5;stroke-linecap:round;stroke-linejoin:round;stroke-miterlimit:10;" x1="240.667" y1="337.942" x2="240.667" y2="424.5"/>
<path id="XMLID_81_" style="fill:#1B3242;" d="M243.333,454H238c-3.084,0-5.583-2.5-5.583-5.583v-18.333
	c0-3.084,2.5-5.583,5.583-5.583h5.333c3.084,0,5.583,2.5,5.583,5.583v18.333C248.917,451.5,246.417,454,243.333,454z"/>
<rect id="XMLID_70_" x="307.251" y="177.498" style="fill:#FFFFFF;" width="123.302" height="125.311"/>
<rect id="XMLID_28_" x="307.251" y="177.498" style="fill:none;stroke:#1B3242;stroke-width:10;stroke-linecap:round;stroke-linejoin:round;stroke-miterlimit:10;" width="123.302" height="125.311"/>
<rect id="XMLID_71_" x="325.667" y="195.723" transform="matrix(-1.836970e-16 1 -1 -1.836970e-16 609.0551 -128.7493)" style="fill:#F34C6A;" width="86.469" height="88.86"/>
<rect id="XMLID_114_" x="325.667" y="195.723" transform="matrix(-1.836970e-16 1 -1 -1.836970e-16 609.0551 -128.7493)" style="fill:none;stroke:#1B3242;stroke-width:6;stroke-linecap:round;stroke-linejoin:round;stroke-miterlimit:10;" width="86.469" height="88.86"/>
<rect id="XMLID_72_" x="460.64" y="137.52" style="fill:#FFFFFF;" width="108.626" height="77.757"/>
<rect id="XMLID_30_" x="460.64" y="137.52" style="fill:none;stroke:#1B3242;stroke-width:10;stroke-linecap:round;stroke-linejoin:round;stroke-miterlimit:10;" width="108.626" height="77.757"/>
<rect id="XMLID_74_" x="492.025" y="138.036" transform="matrix(-1.836970e-16 1 -1 -1.836970e-16 691.3517 -338.5542)" style="fill:#1AC7CE;" width="45.856" height="76.725"/>
<rect id="XMLID_73_" x="460.64" y="248.714" style="fill:#FFFFFF;" width="79.575" height="104.536"/>
<rect id="XMLID_76_" x="464.11" y="277.145" transform="matrix(-1.836970e-16 1 -1 -1.836970e-16 801.4083 -199.4456)" style="fill:#FFD55C;" width="72.635" height="47.673"/>
<rect id="XMLID_122_" x="492.025" y="138.036" transform="matrix(-1.836970e-16 1 -1 -1.836970e-16 691.3517 -338.5542)" style="fill:none;stroke:#1B3242;stroke-width:6;stroke-linecap:round;stroke-linejoin:round;stroke-miterlimit:10;" width="45.856" height="76.725"/>
<rect id="XMLID_115_" x="464.11" y="277.145" transform="matrix(-1.836970e-16 1 -1 -1.836970e-16 801.4083 -199.4456)" style="fill:none;stroke:#1B3242;stroke-width:6;stroke-linecap:round;stroke-linejoin:round;stroke-miterlimit:10;" width="72.635" height="47.673"/>
<rect id="XMLID_31_" x="460.64" y="248.714" style="fill:none;stroke:#1B3242;stroke-width:10;stroke-linecap:round;stroke-linejoin:round;stroke-miterlimit:10;" width="79.575" height="104.536"/>
<circle id="XMLID_4_" style="opacity:0.64;fill:#FCFCFC;" cx="425.981" cy="465.175" r="11.142"/>
<circle id="XMLID_75_" style="fill:none;stroke:#1B3242;stroke-width:8;stroke-linecap:round;stroke-linejoin:round;stroke-miterlimit:10;" cx="425.981" cy="465.175" r="11.142"/>
<line id="XMLID_113_" style="fill:none;stroke:#1D2F3D;stroke-width:10;stroke-linecap:round;stroke-linejoin:round;stroke-miterlimit:10;" x1="363.337" y1="774.577" x2="442.531" y2="774.577"/>
<line id="XMLID_3_" style="fill:none;stroke:#1D2F3D;stroke-width:10;stroke-linecap:round;stroke-linejoin:round;stroke-miterlimit:10;" x1="328.546" y1="774.577" x2="345.849" y2="774.577"/>
<path id="XMLID_82_" style="fill:#F7F7F7;" d="M244.667,436.917L244.667,436.917c-0.846,0-1.531-0.686-1.531-1.531v-4.938
	c0-0.846,0.686-1.531,1.531-1.531l0,0c0.846,0,1.531,0.686,1.531,1.531v4.938C246.198,436.231,245.512,436.917,244.667,436.917z"/>
<g>
	<rect id="XMLID_35_" x="687.133" y="701" style="fill:#1B3242;" width="30" height="24"/>
	
		<rect id="XMLID_5_" x="687.133" y="701" style="fill:none;stroke:#1B3242;stroke-width:10;stroke-linecap:round;stroke-linejoin:round;stroke-miterlimit:10;" width="30" height="24"/>
	<rect id="XMLID_36_" x="800.467" y="701" style="fill:#1B3242;" width="30" height="24"/>
	
		<rect id="XMLID_23_" x="800.467" y="701" style="fill:none;stroke:#1B3242;stroke-width:10;stroke-linecap:round;stroke-linejoin:round;stroke-miterlimit:10;" width="30" height="24"/>
	
		<rect id="XMLID_12_" x="498.3" y="344.5" transform="matrix(-1.836970e-16 1 -1 -1.836970e-16 1200.2998 -317.2997)" style="fill:#E8BA8B;" width="521" height="194"/>
	<rect id="XMLID_117_" x="664.667" y="182.667" style="opacity:0.79;fill:#995D45;" width="186.667" height="6"/>
	<rect id="XMLID_116_" x="661" y="689.5" style="opacity:0.35;fill:#995D45;" width="194.8" height="12.5"/>
	<rect id="XMLID_34_" x="679.8" y="199" style="fill:#C3F3F7;" width="158" height="474"/>
	<polygon id="XMLID_88_" style="opacity:0.31;fill:#474747;" points="836.8,221.667 836.8,203 697.3,203 678.8,203 678.8,221.667 
		678.8,373.667 678.8,392.333 678.8,532.545 678.8,551.212 678.8,677 697.3,677 697.3,551.212 836.8,551.212 836.8,532.545 
		697.3,532.545 697.3,392.333 836.8,392.333 836.8,373.667 697.3,373.667 697.3,221.667 	"/>
	
		<rect id="XMLID_21_" x="498.3" y="344.5" transform="matrix(-1.836970e-16 1 -1 -1.836970e-16 1200.2998 -317.2997)" style="fill:none;stroke:#1B3242;stroke-width:10;stroke-linecap:round;stroke-linejoin:round;stroke-miterlimit:10;" width="521" height="194"/>
	
		<rect id="XMLID_1_" x="679.8" y="515" style="fill:none;stroke:#303030;stroke-width:10;stroke-linecap:round;stroke-linejoin:round;stroke-miterlimit:10;" width="158" height="158"/>
	
		<rect id="XMLID_7_" x="679.8" y="357" style="fill:none;stroke:#303030;stroke-width:10;stroke-linecap:round;stroke-linejoin:round;stroke-miterlimit:10;" width="158" height="158"/>
	
		<rect id="XMLID_8_" x="679.8" y="199" style="fill:none;stroke:#303030;stroke-width:10;stroke-linecap:round;stroke-linejoin:round;stroke-miterlimit:10;" width="158" height="158"/>
	
		<rect id="XMLID_20_" x="679.8" y="199" style="fill:none;stroke:#1B3242;stroke-width:10;stroke-linecap:round;stroke-linejoin:round;stroke-miterlimit:10;" width="158" height="474"/>
	<rect id="XMLID_37_" x="809.8" y="240.347" style="fill:#FF433E;" width="28" height="111.5"/>
	
		<rect id="XMLID_29_" x="809.8" y="240.347" style="fill:none;stroke:#1B3242;stroke-width:10;stroke-linecap:round;stroke-linejoin:round;stroke-miterlimit:10;" width="28" height="111.5"/>
	
		<rect id="XMLID_46_" x="740.091" y="444.979" transform="matrix(4.742524e-11 -1 1 4.742524e-11 252.6325 1254.0908)" style="fill:#FF433E;" width="26.542" height="111.5"/>
	
		<rect id="XMLID_45_" x="740.091" y="444.979" transform="matrix(4.742524e-11 -1 1 4.742524e-11 252.6325 1254.0908)" style="fill:none;stroke:#1B3242;stroke-width:10;stroke-linecap:round;stroke-linejoin:round;stroke-miterlimit:10;" width="26.542" height="111.5"/>
	
		<rect id="XMLID_48_" x="754.779" y="418.438" transform="matrix(4.742524e-11 -1 1 4.742524e-11 293.8624 1242.2375)" style="fill:#6CBC96;" width="26.542" height="111.5"/>
	
		<rect id="XMLID_47_" x="754.779" y="418.438" transform="matrix(4.742524e-11 -1 1 4.742524e-11 293.8624 1242.2375)" style="fill:none;stroke:#1B3242;stroke-width:10;stroke-linecap:round;stroke-linejoin:round;stroke-miterlimit:10;" width="26.542" height="111.5"/>
	
		<rect id="XMLID_50_" x="742.987" y="394.313" transform="matrix(5.689233e-11 -1 1 5.689233e-11 303.9874 1204.1124)" style="fill:#FF433E;" width="22.125" height="111.5"/>
	
		<rect id="XMLID_49_" x="742.987" y="394.313" transform="matrix(5.689233e-11 -1 1 5.689233e-11 303.9874 1204.1124)" style="fill:none;stroke:#1B3242;stroke-width:10;stroke-linecap:round;stroke-linejoin:round;stroke-miterlimit:10;" width="22.125" height="111.5"/>
	
		<line id="XMLID_38_" style="fill:none;stroke:#1B3242;stroke-width:10;stroke-linecap:round;stroke-linejoin:round;stroke-miterlimit:10;" x1="809.8" y1="268" x2="837.8" y2="268"/>
	<rect id="XMLID_33_" x="786" y="248.5" style="fill:#F4BA7A;" width="23.8" height="103.347"/>
	
		<rect id="XMLID_40_" x="786" y="248.5" style="fill:none;stroke:#1B3242;stroke-width:10;stroke-linecap:round;stroke-linejoin:round;stroke-miterlimit:10;" width="23.8" height="103.347"/>
	
		<line id="XMLID_39_" style="fill:none;stroke:#1B3242;stroke-width:10;stroke-linecap:round;stroke-linejoin:round;stroke-miterlimit:10;" x1="786" y1="274.131" x2="809.8" y2="274.131"/>
	
		<rect id="XMLID_60_" x="769.101" y="553.889" transform="matrix(0.9564 0.2922 -0.2922 0.9564 212.2179 -201.7768)" style="fill:#5492A8;" width="25.156" height="111.5"/>
	
		<rect id="XMLID_57_" x="769.101" y="553.889" transform="matrix(0.9564 0.2922 -0.2922 0.9564 212.2179 -201.7768)" style="fill:none;stroke:#1B3242;stroke-width:10;stroke-linecap:round;stroke-linejoin:round;stroke-miterlimit:10;" width="25.156" height="111.5"/>
	
		<line id="XMLID_56_" style="fill:none;stroke:#1B3242;stroke-width:10;stroke-linecap:round;stroke-linejoin:round;stroke-miterlimit:10;" x1="777.858" y1="579.094" x2="801.917" y2="586.443"/>
	
		<rect id="XMLID_61_" x="745.797" y="560.669" transform="matrix(0.9564 0.2922 -0.2922 0.9564 211.9086 -194.2993)" style="fill:#934D84;" width="21.382" height="103.347"/>
	
		<rect id="XMLID_55_" x="745.797" y="560.669" transform="matrix(0.9564 0.2922 -0.2922 0.9564 211.9086 -194.2993)" style="fill:none;stroke:#1B3242;stroke-width:10;stroke-linecap:round;stroke-linejoin:round;stroke-miterlimit:10;" width="21.382" height="103.347"/>
	
		<line id="XMLID_54_" style="fill:none;stroke:#1B3242;stroke-width:10;stroke-linecap:round;stroke-linejoin:round;stroke-miterlimit:10;" x1="753.872" y1="584.313" x2="774.322" y2="590.56"/>
	
		<rect id="XMLID_41_" x="795.179" y="558.841" transform="matrix(0.9564 0.2922 -0.2922 0.9564 213.8577 -208.7572)" style="fill:#FF433E;" width="21.382" height="105.597"/>
	
		<rect id="XMLID_59_" x="795.179" y="558.841" transform="matrix(0.9564 0.2922 -0.2922 0.9564 213.8577 -208.7572)" style="fill:none;stroke:#1B3242;stroke-width:10;stroke-linecap:round;stroke-linejoin:round;stroke-miterlimit:10;" width="21.382" height="105.597"/>
	
		<line id="XMLID_58_" style="fill:none;stroke:#1B3242;stroke-width:10;stroke-linecap:round;stroke-linejoin:round;stroke-miterlimit:10;" x1="803.419" y1="583.067" x2="823.869" y2="589.315"/>
	
		<rect id="XMLID_44_" x="739.608" y="254.178" transform="matrix(0.866 0.5 -0.5 0.866 251.968 -334.8151)" style="fill:#18C6CD;" width="22.399" height="97.262"/>
	
		<rect id="XMLID_43_" x="739.608" y="254.178" transform="matrix(0.866 0.5 -0.5 0.866 251.968 -334.8151)" style="fill:none;stroke:#1B3242;stroke-width:10;stroke-linecap:round;stroke-linejoin:round;stroke-miterlimit:10;" width="22.399" height="97.262"/>
	
		<line id="XMLID_42_" style="fill:none;stroke:#1B3242;stroke-width:10;stroke-linecap:round;stroke-linejoin:round;stroke-miterlimit:10;" x1="753.362" y1="275.983" x2="772.76" y2="287.182"/>
	
		<line id="XMLID_51_" style="fill:none;stroke:#1B3242;stroke-width:10;stroke-linecap:round;stroke-linejoin:round;stroke-miterlimit:10;" x1="741.75" y1="461.125" x2="741.75" y2="487.458"/>
	
		<line id="XMLID_52_" style="fill:none;stroke:#1B3242;stroke-width:10;stroke-linecap:round;stroke-linejoin:round;stroke-miterlimit:10;" x1="723.333" y1="439" x2="723.333" y2="460.917"/>
	
		<line id="XMLID_53_" style="fill:none;stroke:#1B3242;stroke-width:10;stroke-linecap:round;stroke-linejoin:round;stroke-miterlimit:10;" x1="726.25" y1="487.458" x2="726.25" y2="514"/>
	<rect id="XMLID_63_" x="679.8" y="356.667" style="fill:#E8BA8B;" width="158" height="17.333"/>
	
		<rect id="XMLID_62_" x="679.8" y="356.667" style="fill:none;stroke:#1B3242;stroke-width:10;stroke-linecap:round;stroke-linejoin:round;stroke-miterlimit:10;" width="158" height="14.833"/>
	<rect id="XMLID_66_" x="679.8" y="514" style="fill:#995D45;" width="158" height="17.333"/>
	
		<rect id="XMLID_65_" x="679.8" y="514" style="fill:none;stroke:#1B3242;stroke-width:10;stroke-linecap:round;stroke-linejoin:round;stroke-miterlimit:10;" width="158" height="15"/>
	<rect id="XMLID_119_" x="678.8" y="521.5" style="fill:#E8BA8B;" width="159" height="151.5"/>
	<rect id="XMLID_120_" x="678.8" y="660.943" style="opacity:0.35;fill:#995D45;" width="159" height="12.056"/>
	<rect id="XMLID_123_" x="678.8" y="525.305" style="opacity:0.82;fill:#995D45;" width="159" height="7.24"/>
	
		<rect id="XMLID_118_" x="679.8" y="521.5" style="fill:none;stroke:#1B3242;stroke-width:10;stroke-linecap:round;stroke-linejoin:round;stroke-miterlimit:10;" width="158" height="151.5"/>
	
		<line id="XMLID_121_" style="fill:none;stroke:#1B3242;stroke-width:11;stroke-linecap:round;stroke-linejoin:round;stroke-miterlimit:10;" x1="802.182" y1="564.23" x2="802.182" y2="630.27"/>
</g>
</svg>
